<mxfile host="app.diagrams.net" agent="Mozilla/5.0 (Windows NT 10.0; Win64; x64) AppleWebKit/537.36 (KHTML, like Gecko) Chrome/129.0.0.0 Safari/537.36" version="24.7.16">
  <diagram name="Page-1" id="2c0d36ab-eaac-3732-788b-9136903baeff">
    <mxGraphModel dx="7107" dy="1418" grid="1" gridSize="10" guides="1" tooltips="1" connect="1" arrows="1" fold="1" page="1" pageScale="1.5" pageWidth="3000" pageHeight="3000" background="none" math="0" shadow="0">
      <root>
        <mxCell id="0" />
        <mxCell id="1" parent="0" />
        <mxCell id="wIMWApF75YpSeEcvYqAv-141" style="edgeStyle=orthogonalEdgeStyle;rounded=0;orthogonalLoop=1;jettySize=auto;html=1;exitX=0.5;exitY=1;exitDx=0;exitDy=0;entryX=0.5;entryY=0;entryDx=0;entryDy=0;" edge="1" parent="1" source="2" target="wIMWApF75YpSeEcvYqAv-139">
          <mxGeometry relative="1" as="geometry" />
        </mxCell>
        <mxCell id="wIMWApF75YpSeEcvYqAv-166" style="edgeStyle=orthogonalEdgeStyle;rounded=0;orthogonalLoop=1;jettySize=auto;html=1;exitX=0.75;exitY=1;exitDx=0;exitDy=0;entryX=0.25;entryY=0;entryDx=0;entryDy=0;" edge="1" parent="1" source="2" target="wIMWApF75YpSeEcvYqAv-159">
          <mxGeometry relative="1" as="geometry" />
        </mxCell>
        <mxCell id="wIMWApF75YpSeEcvYqAv-168" style="edgeStyle=orthogonalEdgeStyle;rounded=0;orthogonalLoop=1;jettySize=auto;html=1;exitX=1;exitY=0.5;exitDx=0;exitDy=0;entryX=0.25;entryY=0;entryDx=0;entryDy=0;" edge="1" parent="1" source="2" target="wIMWApF75YpSeEcvYqAv-167">
          <mxGeometry relative="1" as="geometry" />
        </mxCell>
        <mxCell id="2" value="RECAMBIOS&#xa;CORTÃ‰S" style="rounded=1;fillColor=#008a00;strokeColor=#005700;fontColor=#000000;fontStyle=1;fontFamily=Tahoma;fontSize=14" parent="1" vertex="1">
          <mxGeometry x="-2380" y="390" width="190" height="80" as="geometry" />
        </mxCell>
        <mxCell id="wIMWApF75YpSeEcvYqAv-131" value="RECAMBIOS" style="rounded=1;fillColor=#d5e8d4;strokeColor=#82b366;fontStyle=1;fontFamily=Tahoma;fontSize=14;gradientColor=#97d077;" vertex="1" parent="1">
          <mxGeometry x="-4220" y="720" width="190" height="80" as="geometry" />
        </mxCell>
        <mxCell id="wIMWApF75YpSeEcvYqAv-133" value="ACCESORIOS Y&#xa;LIMPIEZA" style="rounded=1;fillColor=#d5e8d4;strokeColor=#82b366;fontStyle=1;fontFamily=Tahoma;fontSize=14;gradientColor=#97d077;" vertex="1" parent="1">
          <mxGeometry x="-3280" y="720" width="190" height="80" as="geometry" />
        </mxCell>
        <mxCell id="wIMWApF75YpSeEcvYqAv-134" value="PIEZAS NUEVAS" style="rounded=1;fillColor=#d5e8d4;strokeColor=#82b366;fontStyle=1;fontFamily=Tahoma;fontSize=14;gradientColor=#97d077;" vertex="1" parent="1">
          <mxGeometry x="-3910" y="720" width="190" height="80" as="geometry" />
        </mxCell>
        <mxCell id="wIMWApF75YpSeEcvYqAv-135" value="HERRAMIENTAS" style="rounded=1;fillColor=#d5e8d4;strokeColor=#82b366;fontStyle=1;fontFamily=Tahoma;fontSize=14;gradientColor=#97d077;" vertex="1" parent="1">
          <mxGeometry x="-3580" y="720" width="190" height="80" as="geometry" />
        </mxCell>
        <mxCell id="wIMWApF75YpSeEcvYqAv-155" style="edgeStyle=orthogonalEdgeStyle;rounded=0;orthogonalLoop=1;jettySize=auto;html=1;exitX=0.5;exitY=1;exitDx=0;exitDy=0;entryX=0;entryY=0.5;entryDx=0;entryDy=0;" edge="1" parent="1" source="wIMWApF75YpSeEcvYqAv-136" target="wIMWApF75YpSeEcvYqAv-154">
          <mxGeometry relative="1" as="geometry" />
        </mxCell>
        <mxCell id="wIMWApF75YpSeEcvYqAv-136" value="CARRITO" style="rounded=1;fillColor=#d5e8d4;strokeColor=#82b366;fontStyle=1;fontFamily=Tahoma;fontSize=14;gradientColor=#97d077;" vertex="1" parent="1">
          <mxGeometry x="-2980" y="720" width="190" height="80" as="geometry" />
        </mxCell>
        <mxCell id="wIMWApF75YpSeEcvYqAv-151" style="edgeStyle=orthogonalEdgeStyle;rounded=0;orthogonalLoop=1;jettySize=auto;html=1;exitX=0.5;exitY=1;exitDx=0;exitDy=0;entryX=0;entryY=0.5;entryDx=0;entryDy=0;" edge="1" parent="1" source="wIMWApF75YpSeEcvYqAv-137" target="wIMWApF75YpSeEcvYqAv-150">
          <mxGeometry relative="1" as="geometry" />
        </mxCell>
        <mxCell id="wIMWApF75YpSeEcvYqAv-153" style="edgeStyle=orthogonalEdgeStyle;rounded=0;orthogonalLoop=1;jettySize=auto;html=1;exitX=0.5;exitY=1;exitDx=0;exitDy=0;entryX=0;entryY=0.5;entryDx=0;entryDy=0;" edge="1" parent="1" source="wIMWApF75YpSeEcvYqAv-137" target="wIMWApF75YpSeEcvYqAv-152">
          <mxGeometry relative="1" as="geometry" />
        </mxCell>
        <mxCell id="wIMWApF75YpSeEcvYqAv-137" value="PERFIL" style="rounded=1;fillColor=#d5e8d4;strokeColor=#82b366;fontStyle=1;fontFamily=Tahoma;fontSize=14;gradientColor=#97d077;" vertex="1" parent="1">
          <mxGeometry x="-2690" y="720" width="190" height="80" as="geometry" />
        </mxCell>
        <mxCell id="wIMWApF75YpSeEcvYqAv-149" style="edgeStyle=orthogonalEdgeStyle;rounded=0;orthogonalLoop=1;jettySize=auto;html=1;exitX=0.5;exitY=0;exitDx=0;exitDy=0;entryX=0;entryY=0.5;entryDx=0;entryDy=0;" edge="1" parent="1" source="wIMWApF75YpSeEcvYqAv-138" target="wIMWApF75YpSeEcvYqAv-139">
          <mxGeometry relative="1" as="geometry" />
        </mxCell>
        <mxCell id="wIMWApF75YpSeEcvYqAv-138" value="LOGOTIPO" style="rounded=1;fillColor=#d5e8d4;strokeColor=#82b366;fontStyle=1;fontFamily=Tahoma;fontSize=14;gradientColor=#97d077;" vertex="1" parent="1">
          <mxGeometry x="-4500" y="720" width="190" height="80" as="geometry" />
        </mxCell>
        <mxCell id="wIMWApF75YpSeEcvYqAv-144" style="edgeStyle=orthogonalEdgeStyle;rounded=0;orthogonalLoop=1;jettySize=auto;html=1;exitX=0;exitY=0.75;exitDx=0;exitDy=0;entryX=0.75;entryY=0;entryDx=0;entryDy=0;" edge="1" parent="1" source="wIMWApF75YpSeEcvYqAv-139" target="wIMWApF75YpSeEcvYqAv-133">
          <mxGeometry relative="1" as="geometry" />
        </mxCell>
        <mxCell id="wIMWApF75YpSeEcvYqAv-145" style="edgeStyle=orthogonalEdgeStyle;rounded=0;orthogonalLoop=1;jettySize=auto;html=1;exitX=0;exitY=0.75;exitDx=0;exitDy=0;entryX=0.75;entryY=0;entryDx=0;entryDy=0;" edge="1" parent="1" source="wIMWApF75YpSeEcvYqAv-139" target="wIMWApF75YpSeEcvYqAv-135">
          <mxGeometry relative="1" as="geometry" />
        </mxCell>
        <mxCell id="wIMWApF75YpSeEcvYqAv-146" style="edgeStyle=orthogonalEdgeStyle;rounded=0;orthogonalLoop=1;jettySize=auto;html=1;exitX=0;exitY=0.75;exitDx=0;exitDy=0;entryX=0.75;entryY=0;entryDx=0;entryDy=0;" edge="1" parent="1" source="wIMWApF75YpSeEcvYqAv-139" target="wIMWApF75YpSeEcvYqAv-134">
          <mxGeometry relative="1" as="geometry" />
        </mxCell>
        <mxCell id="wIMWApF75YpSeEcvYqAv-147" style="edgeStyle=orthogonalEdgeStyle;rounded=0;orthogonalLoop=1;jettySize=auto;html=1;exitX=0;exitY=0.75;exitDx=0;exitDy=0;entryX=0.75;entryY=0;entryDx=0;entryDy=0;" edge="1" parent="1" source="wIMWApF75YpSeEcvYqAv-139" target="wIMWApF75YpSeEcvYqAv-131">
          <mxGeometry relative="1" as="geometry" />
        </mxCell>
        <mxCell id="wIMWApF75YpSeEcvYqAv-148" style="edgeStyle=orthogonalEdgeStyle;rounded=0;orthogonalLoop=1;jettySize=auto;html=1;exitX=0;exitY=0.75;exitDx=0;exitDy=0;entryX=0.75;entryY=0;entryDx=0;entryDy=0;" edge="1" parent="1" source="wIMWApF75YpSeEcvYqAv-139" target="wIMWApF75YpSeEcvYqAv-138">
          <mxGeometry relative="1" as="geometry" />
        </mxCell>
        <mxCell id="wIMWApF75YpSeEcvYqAv-165" style="edgeStyle=orthogonalEdgeStyle;rounded=0;orthogonalLoop=1;jettySize=auto;html=1;exitX=0.25;exitY=1;exitDx=0;exitDy=0;entryX=1;entryY=0.5;entryDx=0;entryDy=0;" edge="1" parent="1" source="wIMWApF75YpSeEcvYqAv-139" target="wIMWApF75YpSeEcvYqAv-137">
          <mxGeometry relative="1" as="geometry" />
        </mxCell>
        <mxCell id="wIMWApF75YpSeEcvYqAv-139" value="CABECERA" style="rounded=1;fillColor=#d5e8d4;strokeColor=#82b366;fontStyle=1;fontFamily=Tahoma;fontSize=14;gradientColor=#97d077;" vertex="1" parent="1">
          <mxGeometry x="-2380" y="600" width="190" height="80" as="geometry" />
        </mxCell>
        <mxCell id="wIMWApF75YpSeEcvYqAv-150" value="INICIO SESION" style="rounded=1;fillColor=#d5e8d4;strokeColor=#82b366;fontStyle=1;fontFamily=Tahoma;fontSize=14;gradientColor=#97d077;" vertex="1" parent="1">
          <mxGeometry x="-2530" y="830" width="190" height="80" as="geometry" />
        </mxCell>
        <mxCell id="wIMWApF75YpSeEcvYqAv-152" value="REGISTRO" style="rounded=1;fillColor=#d5e8d4;strokeColor=#82b366;fontStyle=1;fontFamily=Tahoma;fontSize=14;gradientColor=#97d077;" vertex="1" parent="1">
          <mxGeometry x="-2530" y="930" width="190" height="80" as="geometry" />
        </mxCell>
        <mxCell id="wIMWApF75YpSeEcvYqAv-154" value="VER TU CARRITO" style="rounded=1;fillColor=#d5e8d4;strokeColor=#82b366;fontStyle=1;fontFamily=Tahoma;fontSize=14;gradientColor=#97d077;" vertex="1" parent="1">
          <mxGeometry x="-2860" y="830" width="190" height="80" as="geometry" />
        </mxCell>
        <mxCell id="wIMWApF75YpSeEcvYqAv-158" style="edgeStyle=orthogonalEdgeStyle;rounded=0;orthogonalLoop=1;jettySize=auto;html=1;exitX=0;exitY=1;exitDx=0;exitDy=0;entryX=0.672;entryY=-0.032;entryDx=0;entryDy=0;entryPerimeter=0;" edge="1" parent="1" source="wIMWApF75YpSeEcvYqAv-139" target="wIMWApF75YpSeEcvYqAv-136">
          <mxGeometry relative="1" as="geometry" />
        </mxCell>
        <mxCell id="wIMWApF75YpSeEcvYqAv-162" style="edgeStyle=orthogonalEdgeStyle;rounded=0;orthogonalLoop=1;jettySize=auto;html=1;exitX=0.5;exitY=1;exitDx=0;exitDy=0;entryX=0;entryY=0.5;entryDx=0;entryDy=0;" edge="1" parent="1" source="wIMWApF75YpSeEcvYqAv-159" target="wIMWApF75YpSeEcvYqAv-161">
          <mxGeometry relative="1" as="geometry" />
        </mxCell>
        <mxCell id="wIMWApF75YpSeEcvYqAv-159" value="CONTENIDO" style="rounded=1;fillColor=#d5e8d4;strokeColor=#82b366;fontStyle=1;fontFamily=Tahoma;fontSize=14;gradientColor=#97d077;" vertex="1" parent="1">
          <mxGeometry x="-2090" y="600" width="190" height="80" as="geometry" />
        </mxCell>
        <mxCell id="wIMWApF75YpSeEcvYqAv-164" style="edgeStyle=orthogonalEdgeStyle;rounded=0;orthogonalLoop=1;jettySize=auto;html=1;exitX=0.5;exitY=1;exitDx=0;exitDy=0;entryX=0;entryY=0.5;entryDx=0;entryDy=0;" edge="1" parent="1" source="wIMWApF75YpSeEcvYqAv-161" target="wIMWApF75YpSeEcvYqAv-163">
          <mxGeometry relative="1" as="geometry" />
        </mxCell>
        <mxCell id="wIMWApF75YpSeEcvYqAv-161" value="PIEZAS MAS BUSCADAS" style="rounded=1;fillColor=#d5e8d4;strokeColor=#82b366;fontStyle=1;fontFamily=Tahoma;fontSize=14;gradientColor=#97d077;" vertex="1" parent="1">
          <mxGeometry x="-1970" y="710" width="190" height="80" as="geometry" />
        </mxCell>
        <mxCell id="wIMWApF75YpSeEcvYqAv-163" value="ENLACE EXTERNO" style="rounded=1;fillColor=#d5e8d4;strokeColor=#82b366;fontStyle=1;fontFamily=Tahoma;fontSize=14;gradientColor=#97d077;" vertex="1" parent="1">
          <mxGeometry x="-1850" y="810" width="190" height="80" as="geometry" />
        </mxCell>
        <mxCell id="wIMWApF75YpSeEcvYqAv-170" style="edgeStyle=orthogonalEdgeStyle;rounded=0;orthogonalLoop=1;jettySize=auto;html=1;exitX=0.5;exitY=1;exitDx=0;exitDy=0;entryX=0;entryY=0.5;entryDx=0;entryDy=0;" edge="1" parent="1" source="wIMWApF75YpSeEcvYqAv-167" target="wIMWApF75YpSeEcvYqAv-169">
          <mxGeometry relative="1" as="geometry" />
        </mxCell>
        <mxCell id="wIMWApF75YpSeEcvYqAv-167" value="PIE DE PAGINA" style="rounded=1;fillColor=#d5e8d4;strokeColor=#82b366;fontStyle=1;fontFamily=Tahoma;fontSize=14;gradientColor=#97d077;" vertex="1" parent="1">
          <mxGeometry x="-1350" y="550" width="190" height="80" as="geometry" />
        </mxCell>
        <mxCell id="wIMWApF75YpSeEcvYqAv-172" style="edgeStyle=orthogonalEdgeStyle;rounded=0;orthogonalLoop=1;jettySize=auto;html=1;exitX=0.5;exitY=1;exitDx=0;exitDy=0;entryX=0;entryY=0.5;entryDx=0;entryDy=0;" edge="1" parent="1" source="wIMWApF75YpSeEcvYqAv-169" target="wIMWApF75YpSeEcvYqAv-171">
          <mxGeometry relative="1" as="geometry" />
        </mxCell>
        <mxCell id="wIMWApF75YpSeEcvYqAv-169" value="DEVOLUCION DE UNA&#xa;PIEZA" style="rounded=1;fillColor=#d5e8d4;strokeColor=#82b366;fontStyle=1;fontFamily=Tahoma;fontSize=14;gradientColor=#97d077;" vertex="1" parent="1">
          <mxGeometry x="-1220" y="660" width="190" height="80" as="geometry" />
        </mxCell>
        <mxCell id="wIMWApF75YpSeEcvYqAv-171" value="DEVOLUCION DE UNA&#xa;PIEZA" style="rounded=1;fillColor=#d5e8d4;strokeColor=#82b366;fontStyle=1;fontFamily=Tahoma;fontSize=14;gradientColor=#97d077;" vertex="1" parent="1">
          <mxGeometry x="-1080" y="760" width="190" height="80" as="geometry" />
        </mxCell>
      </root>
    </mxGraphModel>
  </diagram>
</mxfile>
